<svg xmlns="http://www.w3.org/2000/svg" width="95" height="32" fill="none" viewBox="0 0 95 32">
  <g clip-path="url(#clip0_1902_565)">
    <path fill="#000" d="M94.675 20.279v.722h-2.973v-.722h2.973Zm-1.967-1.337h.94v5.474c0 .187.03.328.087.422a.413.413 0 0 0 .224.188c.091.031.19.046.294.046.078 0 .16-.006.244-.02.088-.017.154-.03.198-.04l.006.767a2.195 2.195 0 0 1-.295.066 2.235 2.235 0 0 1-.432.035c-.23 0-.443-.045-.636-.137a1.022 1.022 0 0 1-.462-.457c-.112-.217-.168-.509-.168-.875v-5.469ZM87.559 21.453v4.326h-.94v-5.5h.89l.05 1.174Zm-.224 1.367-.391-.015a3.31 3.31 0 0 1 .168-1.042 2.6 2.6 0 0 1 .457-.839 2.038 2.038 0 0 1 1.611-.747c.272 0 .516.038.732.112.217.071.402.186.554.346.156.159.275.366.356.62.082.25.122.557.122.92v3.604H90v-3.614c0-.288-.042-.519-.127-.692a.781.781 0 0 0-.371-.38 1.332 1.332 0 0 0-.6-.123c-.234 0-.447.05-.64.148-.19.098-.355.233-.494.406a2.047 2.047 0 0 0-.32.595c-.074.22-.112.454-.112.701ZM83.38 25.88c-.382 0-.73-.064-1.041-.193a2.362 2.362 0 0 1-.798-.554 2.464 2.464 0 0 1-.509-.844 3.095 3.095 0 0 1-.177-1.067v-.213c0-.448.066-.846.198-1.195.132-.352.312-.65.538-.895a2.31 2.31 0 0 1 .773-.554 2.22 2.22 0 0 1 .895-.188c.393 0 .732.068 1.016.204.288.135.524.325.707.569.183.24.318.525.406.854.089.325.133.68.133 1.067v.422h-4.107v-.767h3.166v-.072a2.343 2.343 0 0 0-.152-.711 1.28 1.28 0 0 0-.407-.57c-.186-.149-.44-.223-.762-.223a1.28 1.28 0 0 0-1.052.534 1.994 1.994 0 0 0-.3.645 3.27 3.27 0 0 0-.107.88v.213c0 .26.035.507.107.737.074.227.181.427.32.6.142.173.313.308.513.406.204.099.434.148.692.148.332 0 .613-.068.843-.203.23-.136.432-.317.605-.544l.57.452c-.12.18-.27.35-.453.513a2.159 2.159 0 0 1-.676.397 2.619 2.619 0 0 1-.94.152ZM72.905 21.372v4.407h-.946v-5.5h.895l.05 1.093Zm-.194 1.448-.437-.015c.004-.376.053-.723.148-1.042.095-.322.235-.601.422-.839.186-.237.418-.42.696-.549.278-.132.6-.198.966-.198.257 0 .495.038.711.112.217.071.405.185.565.34.159.156.283.356.37.6.089.244.133.54.133.885v3.665h-.94v-3.62c0-.287-.05-.518-.148-.69a.842.842 0 0 0-.407-.377 1.468 1.468 0 0 0-.62-.122c-.278 0-.51.05-.696.148a1.176 1.176 0 0 0-.447.406 1.83 1.83 0 0 0-.244.595 3.32 3.32 0 0 0-.072.701Zm3.564-.518-.63.193c.003-.302.052-.591.147-.87a2.36 2.36 0 0 1 .422-.741c.186-.217.415-.388.686-.514.271-.128.581-.193.93-.193.295 0 .556.04.783.117.23.078.424.198.58.361.159.16.279.364.36.615.082.25.122.55.122.895v3.614h-.945v-3.625c0-.308-.05-.547-.148-.716a.769.769 0 0 0-.406-.361 1.626 1.626 0 0 0-.62-.107c-.207 0-.39.036-.55.107-.159.071-.293.17-.4.295a1.285 1.285 0 0 0-.25.422c-.054.159-.081.328-.081.508ZM68.584 25.21l1.53-4.931h1.007l-2.206 6.349c-.051.135-.119.28-.204.437-.081.159-.186.31-.315.452a1.5 1.5 0 0 1-.468.346c-.18.091-.394.137-.645.137a2.78 2.78 0 0 1-.529-.081l-.005-.763c.027.004.07.007.127.01a1.511 1.511 0 0 0 .671-.076.823.823 0 0 0 .376-.28c.105-.128.195-.306.27-.533l.391-1.068Zm-1.123-4.931 1.428 4.27.244.99-.676.346-2.023-5.606h1.027ZM64.7 24.838v-2.83c0-.218-.043-.406-.131-.565a.865.865 0 0 0-.387-.376 1.4 1.4 0 0 0-.64-.132c-.237 0-.446.04-.625.122a1.09 1.09 0 0 0-.417.32.702.702 0 0 0-.148.427h-.94c0-.197.05-.392.153-.585.101-.193.247-.367.437-.523.193-.16.423-.285.691-.376.271-.095.573-.143.905-.143.4 0 .752.068 1.057.204.308.135.549.34.722.615.176.27.264.611.264 1.021v2.562c0 .183.015.378.046.585.034.206.083.384.147.533v.082h-.98a1.752 1.752 0 0 1-.113-.432 3.486 3.486 0 0 1-.04-.509Zm.163-2.394.01.661h-.95c-.268 0-.507.022-.717.066-.21.04-.386.104-.528.188a.895.895 0 0 0-.326.32.85.85 0 0 0-.111.443c0 .172.039.33.117.472a.851.851 0 0 0 .35.34c.16.082.354.123.585.123a1.587 1.587 0 0 0 1.286-.63.963.963 0 0 0 .213-.514l.402.453c-.024.142-.088.3-.193.472a2.263 2.263 0 0 1-1.042.89 2.022 2.022 0 0 1-.803.152c-.373 0-.7-.072-.981-.218a1.678 1.678 0 0 1-.651-.585 1.547 1.547 0 0 1-.229-.828c0-.295.058-.554.173-.778.115-.227.281-.415.498-.564.217-.153.478-.268.783-.346a4.126 4.126 0 0 1 1.022-.117h1.092ZM57.823 22.876h-1.977v-.798h1.977c.383 0 .693-.06.93-.183.238-.122.41-.291.519-.508.112-.217.168-.464.168-.742 0-.254-.056-.493-.168-.717a1.24 1.24 0 0 0-.518-.538c-.238-.14-.548-.209-.93-.209h-1.75v6.598h-.98v-7.401h2.73c.558 0 1.031.097 1.418.29.386.193.679.46.879.803.2.339.3.727.3 1.164 0 .474-.1.88-.3 1.215-.2.335-.493.591-.88.767-.386.173-.859.26-1.418.26ZM48.039 17.971v7.808h-.946V17.97h.946Zm3.36 2.308-2.4 2.567-1.342 1.392-.076-1 .96-1.15 1.709-1.81h1.149Zm-.86 5.5-1.962-2.623.489-.839 2.582 3.462h-1.109ZM42.28 21.453v4.326h-.94v-5.5h.889l.05 1.174Zm-.224 1.367-.391-.015a3.31 3.31 0 0 1 .167-1.042 2.6 2.6 0 0 1 .458-.839 2.038 2.038 0 0 1 1.611-.747c.271 0 .515.038.732.112.217.071.402.186.554.346.156.159.275.366.356.62.081.25.122.557.122.92v3.604h-.946v-3.614c0-.288-.042-.519-.127-.692a.781.781 0 0 0-.37-.38 1.332 1.332 0 0 0-.6-.123c-.234 0-.448.05-.64.148-.19.098-.355.233-.494.406a2.047 2.047 0 0 0-.32.595c-.075.22-.112.454-.112.701ZM38.92 24.838v-2.83c0-.218-.044-.406-.132-.565a.865.865 0 0 0-.387-.376 1.4 1.4 0 0 0-.64-.132c-.237 0-.446.04-.625.122a1.09 1.09 0 0 0-.417.32.702.702 0 0 0-.148.427h-.94c0-.197.05-.392.153-.585.101-.193.247-.367.437-.523.193-.16.423-.285.691-.376.271-.095.573-.143.905-.143.4 0 .752.068 1.057.204.308.135.549.34.722.615.176.27.264.611.264 1.021v2.562c0 .183.015.378.046.585.034.206.083.384.147.533v.082h-.98a1.752 1.752 0 0 1-.113-.432 3.486 3.486 0 0 1-.04-.509Zm.162-2.394.01.661h-.95c-.268 0-.507.022-.717.066-.21.04-.386.104-.528.188a.895.895 0 0 0-.326.32.85.85 0 0 0-.111.443c0 .172.039.33.117.472a.85.85 0 0 0 .35.34c.16.082.354.123.585.123a1.587 1.587 0 0 0 1.286-.63.963.963 0 0 0 .213-.514l.402.453c-.024.142-.088.3-.193.472a2.263 2.263 0 0 1-1.042.89 2.022 2.022 0 0 1-.803.152c-.373 0-.7-.072-.981-.218a1.678 1.678 0 0 1-.651-.585 1.547 1.547 0 0 1-.229-.828c0-.295.058-.554.173-.778.115-.227.281-.415.498-.564.217-.153.478-.268.783-.346a4.126 4.126 0 0 1 1.022-.117h1.092ZM31.971 22.317h-1.875l-.01-.788h1.702c.282 0 .527-.047.737-.142.21-.095.373-.23.488-.407.119-.18.178-.393.178-.64 0-.271-.052-.491-.157-.66a.872.872 0 0 0-.473-.377c-.21-.081-.478-.122-.803-.122h-1.444v6.598h-.98v-7.401h2.424c.38 0 .718.039 1.016.117.299.075.551.193.758.356.21.159.37.362.478.61.108.247.162.544.162.89 0 .304-.078.58-.234.828a1.796 1.796 0 0 1-.65.6 2.546 2.546 0 0 1-.966.3l-.35.238Zm-.045 3.462h-2.217l.554-.798h1.663c.311 0 .576-.054.793-.163.22-.108.387-.26.503-.457.115-.2.173-.436.173-.707 0-.274-.05-.512-.148-.712a1.019 1.019 0 0 0-.462-.462c-.21-.108-.482-.163-.814-.163h-1.398l.01-.788h1.912l.208.285c.356.03.658.132.905.305.247.17.436.386.564.65.132.265.199.556.199.875 0 .46-.102.85-.306 1.17-.2.314-.482.555-.848.72-.366.164-.797.245-1.291.245ZM60.284 8.568v.721H57.31v-.721h2.974ZM58.316 7.23h.94v5.474c0 .187.03.327.087.422a.413.413 0 0 0 .224.188c.091.03.19.046.295.046.078 0 .159-.007.244-.02.088-.017.154-.03.198-.041l.005.768a2.195 2.195 0 0 1-.295.066 2.235 2.235 0 0 1-.432.035c-.23 0-.442-.046-.635-.137a1.022 1.022 0 0 1-.463-.458c-.112-.216-.168-.508-.168-.874V7.23ZM53.167 9.742v4.325h-.94v-5.5h.89l.05 1.175Zm-.223 1.367-.392-.015a3.31 3.31 0 0 1 .168-1.042c.108-.322.261-.602.458-.839a2.038 2.038 0 0 1 1.61-.747c.272 0 .516.037.733.112.217.071.401.186.554.346.156.159.274.366.356.62.081.25.122.557.122.92v3.604h-.946v-3.614c0-.289-.042-.519-.127-.692a.781.781 0 0 0-.37-.381 1.332 1.332 0 0 0-.6-.122c-.234 0-.448.05-.641.147-.19.099-.354.234-.493.407a2.045 2.045 0 0 0-.32.595c-.075.22-.112.454-.112.701ZM49.807 13.127v-2.831c0-.217-.044-.405-.132-.564a.865.865 0 0 0-.386-.376 1.4 1.4 0 0 0-.64-.133c-.238 0-.446.041-.626.122a1.089 1.089 0 0 0-.417.32.702.702 0 0 0-.147.428h-.94c0-.197.05-.392.152-.585.102-.193.248-.368.437-.523.194-.16.424-.285.692-.377.27-.094.572-.142.905-.142.4 0 .752.068 1.057.203.308.136.549.34.721.615.177.272.265.612.265 1.022v2.562c0 .183.015.378.046.585.033.206.083.384.147.533v.082h-.981a1.752 1.752 0 0 1-.112-.432 3.485 3.485 0 0 1-.04-.509Zm.163-2.394.01.66h-.95c-.268 0-.507.023-.717.067-.21.04-.386.103-.529.188a.895.895 0 0 0-.325.32.85.85 0 0 0-.112.443c0 .172.04.33.117.472a.85.85 0 0 0 .35.34c.16.082.355.123.586.123a1.586 1.586 0 0 0 1.286-.63.963.963 0 0 0 .213-.514l.401.453c-.023.142-.088.3-.193.472a2.263 2.263 0 0 1-1.042.89 2.02 2.02 0 0 1-.803.152c-.373 0-.7-.073-.98-.218a1.677 1.677 0 0 1-.651-.585 1.547 1.547 0 0 1-.23-.829c0-.294.058-.554.174-.777.115-.227.28-.415.498-.564.217-.153.478-.268.783-.346a4.131 4.131 0 0 1 1.021-.117h1.093ZM45.462 8.568v.721h-2.974v-.721h2.974ZM43.494 7.23h.94v5.474c0 .187.03.327.087.422a.413.413 0 0 0 .224.188c.091.03.19.046.295.046.078 0 .159-.007.244-.02.088-.017.154-.03.198-.041l.005.768a2.195 2.195 0 0 1-.295.066 2.235 2.235 0 0 1-.432.035c-.23 0-.442-.046-.635-.137a1.022 1.022 0 0 1-.463-.458c-.112-.216-.167-.508-.167-.874V7.23ZM40.983 12.609c0-.136-.03-.261-.091-.376-.058-.119-.178-.226-.36-.32-.18-.099-.452-.184-.814-.255a6.441 6.441 0 0 1-.829-.228 2.515 2.515 0 0 1-.625-.32c-.17-.126-.3-.274-.391-.443a1.233 1.233 0 0 1-.138-.595c0-.217.048-.422.143-.615.098-.193.235-.364.411-.513.18-.15.395-.266.646-.35.25-.086.53-.128.839-.128.44 0 .816.078 1.128.234.312.156.55.364.717.625.166.258.249.544.249.86h-.94c0-.153-.046-.3-.138-.443a1.013 1.013 0 0 0-.391-.361 1.263 1.263 0 0 0-.625-.142c-.261 0-.473.04-.636.122a.816.816 0 0 0-.35.3.756.756 0 0 0-.056.66c.037.078.101.151.193.219.091.064.22.125.386.183.166.057.378.115.636.173.45.101.821.223 1.113.366.291.142.508.317.65.523.143.207.214.458.214.752a1.464 1.464 0 0 1-.584 1.18 2.15 2.15 0 0 1-.672.335 2.998 2.998 0 0 1-.869.117c-.484 0-.895-.086-1.23-.259a1.903 1.903 0 0 1-.762-.671 1.606 1.606 0 0 1-.26-.87h.946c.013.258.088.463.224.616.135.149.301.256.498.32.196.061.391.092.584.092.258 0 .473-.034.646-.102a.9.9 0 0 0 .401-.28.648.648 0 0 0 .138-.406ZM32.968 9.742v4.325h-.94v-5.5h.889l.05 1.175Zm-.224 1.367-.391-.015c.003-.376.059-.723.167-1.042.109-.322.261-.602.458-.839a2.038 2.038 0 0 1 1.611-.747c.271 0 .515.037.732.112.217.071.402.186.554.346.156.159.275.366.356.62.081.25.122.557.122.92v3.604h-.946v-3.614c0-.289-.042-.519-.126-.692a.782.782 0 0 0-.372-.381 1.332 1.332 0 0 0-.6-.122c-.233 0-.447.05-.64.147-.19.099-.354.234-.493.407a2.045 2.045 0 0 0-.32.595c-.075.22-.112.454-.112.701ZM30.385 6.667v7.4h-.98v-7.4h.98Z"/>
    <g clip-path="url(#clip1_1902_565)">
      <path fill="url(#paint0_linear_1902_565)" d="M7 27c-.55 0-1.02-.196-1.412-.587A1.926 1.926 0 0 1 5 25V7c0-.55.196-1.02.588-1.412A1.926 1.926 0 0 1 7 5h10c.55 0 1.02.196 1.413.588.391.391.587.862.587 1.412v18c0 .55-.196 1.02-.587 1.413A1.926 1.926 0 0 1 17 27H7Zm0-6.333h10V7.333H7v13.334Z"/>
      <path fill="url(#paint1_linear_1902_565)" fill-rule="evenodd" d="M7 20.667h10V7.333H7v13.334Z" clip-rule="evenodd"/>
      <path fill="url(#paint2_linear_1902_565)" d="M19.51 19.699c-.769 0-1.49-.146-2.167-.438a5.611 5.611 0 0 1-1.764-1.187c-.5-.5-.896-1.088-1.187-1.764a5.411 5.411 0 0 1-.438-2.167c0-.768.146-1.49.438-2.167a5.611 5.611 0 0 1 1.187-1.763c.5-.5 1.088-.896 1.764-1.188a5.41 5.41 0 0 1 2.167-.437c.768 0 1.49.145 2.167.437a5.611 5.611 0 0 1 1.764 1.188c.5.5.895 1.088 1.187 1.764.292.675.438 1.398.438 2.166 0 .769-.146 1.49-.438 2.167a5.611 5.611 0 0 1-1.188 1.764c-.5.5-1.088.896-1.763 1.187a5.411 5.411 0 0 1-2.167.438Z"/>
      <path fill="#1C1B1F" d="M19.777 17.076a2.896 2.896 0 0 1-1.75-.558 2.999 2.999 0 0 1-1.084-1.442h-1.166v-.666h1.016a.94.94 0 0 1-.016-.167v-.333c0-.05.005-.106.016-.167h-1.016v-.667h1.166a2.999 2.999 0 0 1 1.084-1.441 2.897 2.897 0 0 1 1.75-.559c.383 0 .745.067 1.087.2.342.134.646.323.913.567l-.584.584a2.292 2.292 0 0 0-.654-.38 2.131 2.131 0 0 0-.762-.137c-.417 0-.796.107-1.138.32a2.112 2.112 0 0 0-.78.846h1.918v.667h-2.134c-.01.061-.02.117-.025.167a1.507 1.507 0 0 0 0 .333c.006.05.014.106.025.167h2.134v.666H17.86c.178.35.437.632.78.846a2.1 2.1 0 0 0 1.137.321c.266 0 .523-.046.77-.137.248-.092.463-.218.646-.38l.584.584c-.267.244-.571.433-.913.567-.342.133-.704.2-1.087.2Z"/>
      <circle cx="12" cy="24" r="1.333" fill="#2541A5"/>
    </g>
  </g>
  <defs>
    <linearGradient id="paint0_linear_1902_565" x1="12" x2="12" y1="5" y2="27" gradientUnits="userSpaceOnUse">
      <stop stop-color="#93AAFF"/>
      <stop offset="1" stop-color="#3F67F5"/>
    </linearGradient>
    <linearGradient id="paint1_linear_1902_565" x1="12" x2="12" y1="5" y2="27" gradientUnits="userSpaceOnUse">
      <stop stop-color="#384C96"/>
      <stop offset="1" stop-color="#1C3BAB"/>
    </linearGradient>
    <linearGradient id="paint2_linear_1902_565" x1="23.453" x2="23.453" y1="19.709" y2="11.41" gradientUnits="userSpaceOnUse">
      <stop stop-color="#E6A70C"/>
      <stop offset="1" stop-color="#F4BB2E"/>
    </linearGradient>
    <clipPath id="clip0_1902_565">
      <path fill="#fff" d="M0 0h94.667v32H0z"/>
    </clipPath>
    <clipPath id="clip1_1902_565">
      <path fill="#fff" d="M1.333 4h24v24h-24z"/>
    </clipPath>
  </defs>
</svg>
