<svg width="52" height="32" viewBox="0 0 52 32" fill="none" xmlns="http://www.w3.org/2000/svg">
<rect width="52" height="32" rx="4" fill="white"/>
<g clip-path="url(#clip0_6881_116461)">
<path d="M34.4658 28C41.0932 28 46.4658 22.6274 46.4658 16C46.4658 9.37258 41.0932 4 34.4658 4C27.8384 4 22.4658 9.37258 22.4658 16C22.4658 22.6274 27.8384 28 34.4658 28Z" fill="url(#paint0_linear_6881_116461)"/>
<g clip-path="url(#clip1_6881_116461)">
<path d="M34.6152 20.6306L34.6148 24.5434L30.234 17.8374L34.6152 20.6306Z" fill="white"/>
<path d="M34.6384 24.546L34.6388 20.6314L39.021 17.8374L34.6384 24.546Z" fill="white"/>
<path d="M39.0129 15.4537L34.6384 7.4624L34.6394 13.3199L39.0129 15.4537Z" fill="white"/>
<path d="M34.6159 13.3461L34.6148 18.4171L30.2377 15.4823L34.6159 13.3461Z" fill="white"/>
<path d="M34.6384 18.4184L34.6394 13.3461L39.0174 15.4823L34.6384 18.4184Z" fill="white"/>
<path d="M34.6159 13.3199L30.2422 15.4538L34.6148 7.46552L34.6159 13.3199Z" fill="white"/>
</g>
<path d="M28.5746 18.9289C26.9758 25.3375 20.4805 29.2427 14.0352 27.6406C7.58992 26.0385 3.69276 19.5297 5.29159 13.0711C6.89042 6.66249 13.3857 2.75726 19.831 4.3594C26.2763 5.96155 30.1735 12.4703 28.5746 18.9289Z" fill="url(#paint1_linear_6881_116461)"/>
<path d="M22.229 14.2727C22.4788 12.6706 21.2297 11.8194 19.5809 11.2186L20.1305 9.06576L18.8315 8.71529L18.3318 10.8181C17.9821 10.718 17.6323 10.6679 17.2826 10.5678L17.8322 8.46495L16.4332 8.16455L15.8836 10.3174C15.5838 10.2674 15.334 10.1672 15.0342 10.1172L13.2355 9.66656L12.8858 11.0684C12.8858 11.0684 13.8851 11.2687 13.8351 11.3188C14.3847 11.469 14.4846 11.8194 14.4347 12.0698L13.8351 14.5231C13.8851 14.5231 13.935 14.5231 13.985 14.5731C13.935 14.5731 13.8851 14.5731 13.8351 14.5231L12.9857 17.9777C12.9358 18.1279 12.7359 18.3782 12.3862 18.2781L11.4369 18.0278L10.7873 19.5298L12.4861 19.9804C12.7859 20.0805 13.1356 20.1306 13.4354 20.2307L12.8858 22.4337L14.1848 22.7841L14.7344 20.6313C15.0842 20.7314 15.4339 20.8315 15.7837 20.8816L15.2341 23.0345L16.5331 23.3849L17.0827 21.182C19.3311 21.5825 21.0299 21.4323 21.7294 19.3796C22.279 17.7274 21.6794 16.7761 20.5302 16.1753C21.3796 16.0251 22.0291 15.4743 22.229 14.2727ZM19.2312 18.5284C18.8315 20.1807 16.0835 19.2794 15.1841 19.0792L15.8836 16.1753C16.783 16.3756 19.6309 16.8262 19.2312 18.5284ZM19.6309 14.2727C19.2811 15.7747 16.9828 15.0237 16.2334 14.8235L16.8829 12.1699C17.6323 12.3702 20.0306 12.7207 19.6309 14.2727Z" fill="white"/>
</g>
<defs>
<linearGradient id="paint0_linear_6881_116461" x1="34.4658" y1="4" x2="34.4658" y2="28" gradientUnits="userSpaceOnUse">
<stop stop-color="#46EDCF"/>
<stop offset="1" stop-color="#268675"/>
</linearGradient>
<linearGradient id="paint1_linear_6881_116461" x1="16.9331" y1="4" x2="16.9331" y2="28" gradientUnits="userSpaceOnUse">
<stop stop-color="#FFB55B"/>
<stop offset="1" stop-color="#E68613"/>
</linearGradient>
<clipPath id="clip0_6881_116461">
<rect width="41.5327" height="24" fill="white" transform="translate(4.93311 4)"/>
</clipPath>
<clipPath id="clip1_6881_116461">
<rect width="9.69231" height="18" fill="white" transform="translate(29.8484 7)"/>
</clipPath>
</defs>
</svg>
