<svg width="43" height="32" viewBox="0 0 43 32" fill="none" xmlns="http://www.w3.org/2000/svg">
    <path d="M25.827 8.25887H17.1741V23.7412H25.827V8.25887Z" fill="#FF5A00"/>
    <path d="M17.7231 16C17.7214 14.5087 18.0613 13.0373 18.7151 11.6958C19.3698 10.3551 20.3221 9.17974 21.5 8.25883C20.041 7.11722 18.2896 6.40749 16.444 6.21016C14.5992 6.01282 12.7363 6.33652 11.0671 7.14405C9.39795 7.95157 7.99081 9.21003 7.00659 10.7766C6.02238 12.3423 5.5 14.1521 5.5 16C5.5 17.8479 6.02238 19.6577 7.00659 21.2234C7.99081 22.79 9.39795 24.0484 11.0671 24.856C12.7363 25.6635 14.5992 25.9872 16.444 25.7898C18.2896 25.5925 20.041 24.8828 21.5 23.7412C20.3221 22.8203 19.3698 21.6449 18.7151 20.3042C18.0613 18.9627 17.7214 17.4913 17.7231 16Z" fill="#EB001B"/>
    <path d="M37.5 16C37.5 17.8479 36.9776 19.6577 35.9934 21.2234C35.0092 22.79 33.6021 24.0484 31.9337 24.856C30.2645 25.6635 28.4008 25.9872 26.556 25.7898C24.7112 25.5925 22.959 24.8828 21.5 23.7412C22.6771 22.8194 23.6293 21.644 24.2831 20.3033C24.937 18.9618 25.2777 17.4904 25.2777 16C25.2777 14.5096 24.937 13.0382 24.2831 11.6967C23.6293 10.356 22.6771 9.18061 21.5 8.25883C22.959 7.11722 24.7112 6.40749 26.556 6.21016C28.4008 6.01282 30.2645 6.33652 31.9337 7.14405C33.6021 7.95157 35.0092 9.21003 35.9934 10.7766C36.9776 12.3423 37.5 14.1521 37.5 16Z" fill="#F79E1B"/>
</svg>
