<svg xmlns="http://www.w3.org/2000/svg" width="59" height="32" fill="none" viewBox="0 0 59 32">
  <path fill="#010101" d="M19.165 8.498v10.264c0 .909.021 1.458.063 1.986h-.042c-.222-.605-.484-1.135-.874-1.825l-6.07-10.425H9.466v15.004h2.162V13.236c0-.909-.022-1.458-.063-1.987h.044c.222.605.484 1.135.875 1.825l6.068 10.427h2.745V8.498h-2.133ZM43.823 13.52c-1.789 0-3.066.827-3.712 2.052 0-2.895 1.009-5.414 3.406-5.414 1.523 0 2.128.876 2.45 2.313l2.22-.444c-.521-2.48-2.1-3.687-4.655-3.687-3.21 0-5.613 2.465-5.613 7.99 0 4.906 2.003 7.33 5.455 7.33 2.852 0 4.988-1.947 4.988-5.157 0-2.507-1.337-4.983-4.54-4.983Zm-.444 8.327c-1.77 0-2.995-1.626-3.207-3.785.537-1.842 1.73-2.76 3.139-2.76 1.812 0 2.834 1.338 2.834 3.24 0 2.043-1.166 3.305-2.766 3.305ZM28.109 21.558c1.13-.78 2.749-2.078 3.467-2.797.817-.817 3.142-2.917 3.142-5.911 0-3.095-2.017-4.511-4.744-4.511-3.306.001-4.938 2.036-4.938 4.364 0 .4.05.797.148 1.184l2.265.218a6.024 6.024 0 0 1-.148-1.289c0-1.743 1.154-2.577 2.598-2.577 1.408 0 2.45.789 2.45 2.686 0 1.929-.942 3.243-2.379 4.68-1.501 1.503-3.902 3.296-5.058 4.12v1.776h9.974v-1.943H28.11ZM21.432 27.39v1.943H9.333V27.39h12.1ZM21.432 2.667V4.61H9.333V2.667h12.1Z"/>
  <path fill="#010101" d="M19.165 8.498v10.264c0 .909.021 1.458.063 1.986h-.042c-.222-.605-.484-1.135-.874-1.825l-6.07-10.425H9.466v15.004h2.162V13.236c0-.909-.022-1.458-.063-1.987h.044c.222.605.484 1.135.875 1.825l6.068 10.427h2.745V8.498h-2.133Z"/>
</svg>
