<svg width="73" height="40" viewBox="0 0 73 40" fill="none" xmlns="http://www.w3.org/2000/svg">
<g clip-path="url(#clip0_1564_1690)">
<path d="M13.1577 18.8524C13.1577 18.5977 13.0168 18.4562 12.7914 18.4562H11.5518C11.27 18.4562 11.101 18.626 11.101 18.9373V21.1733C11.101 21.4846 11.27 21.6544 11.6081 21.6544H12.7351C12.7351 21.6544 12.9605 21.5978 13.0168 21.5129C13.1013 21.4563 13.1295 21.3714 13.1295 21.2582V18.8524H13.1577ZM9.52319 18.5411C9.52319 17.975 9.66407 17.5505 9.88946 17.2674C10.0022 17.1542 10.1712 17.041 10.3684 16.9561C10.5656 16.8712 10.7629 16.8146 10.9601 16.8146H13.2422C14.2283 16.8146 14.7636 17.3806 14.7636 18.4562V21.8242C14.7636 22.2205 14.5946 22.5601 14.3128 22.8148C14.0311 23.1262 13.6648 23.2677 13.2704 23.2677H11.1291V25.7017H9.55137V18.5411H9.52319Z" fill="#2C00FF"/>
<path d="M17.6093 21.3431C17.6093 21.3431 17.6374 21.5129 17.722 21.5695C17.8065 21.6261 17.891 21.6827 18.0037 21.6827H19.2152C19.497 21.6827 19.6378 21.5695 19.6378 21.3431V20.8902C19.6378 20.6355 19.497 20.5223 19.187 20.5223H17.9755C17.8065 20.5223 17.6938 20.5223 17.6374 20.6072C17.5811 20.6638 17.5529 20.777 17.5529 20.9468V21.3431H17.6093ZM19.666 18.8241C19.666 18.5694 19.5251 18.4562 19.2434 18.4562H16.0315V16.8146H19.6378C20.6803 16.8146 21.2156 17.3523 21.2438 18.3429V21.7676C21.2438 22.1922 21.1029 22.5601 20.8493 22.8431C20.5676 23.1262 20.2295 23.296 19.8069 23.296H17.6374C16.5668 23.296 16.0315 22.8148 16.0315 21.8242V20.494C16.0315 19.4751 16.5668 18.9656 17.5811 18.9656H19.6942V18.7958L19.666 18.8241Z" fill="#2C00FF"/>
<path d="M25.6953 24.0885C25.6953 24.0885 25.9207 24.0319 26.0334 23.947C26.1179 23.862 26.1461 23.7771 26.1461 23.6922V23.296H24.1176C23.864 23.296 23.6386 23.2677 23.4977 23.2111C23.3287 23.1545 23.1596 23.0413 22.9906 22.8714C22.8215 22.7016 22.7088 22.5318 22.6525 22.3337C22.568 22.1639 22.5398 21.9374 22.5398 21.6827V16.8429H24.1176V21.1733C24.1176 21.5129 24.2584 21.6827 24.5402 21.6827H25.6672C25.6672 21.6827 25.9207 21.6261 26.0053 21.5412C26.0898 21.4563 26.1461 21.3714 26.1461 21.2582V16.8146H27.7239V23.947C27.7239 24.4847 27.583 24.9093 27.3295 25.2206C27.0759 25.5319 26.7096 25.7017 26.2588 25.7017H22.5398V24.0602H25.6953V24.0885Z" fill="#2C00FF"/>
<path d="M28.9636 21.6544H31.8092C32.0628 21.6544 32.2037 21.5412 32.2037 21.3431V21.2016C32.2037 21.2016 32.2037 21.1166 32.1755 21.06C32.1192 20.9468 32.0346 20.8619 31.9501 20.8619H30.5414C30.1188 20.8619 29.7807 20.7204 29.4708 20.4374C29.1608 20.1826 29.02 19.8713 28.9918 19.5034V18.2863C28.9918 17.324 29.5271 16.8429 30.5414 16.8146H33.8378V18.4562H31.0485C30.7104 18.4562 30.5696 18.5694 30.5696 18.7675V18.9373C30.5696 19.1354 30.7386 19.2486 31.0767 19.2486H32.4854C32.8517 19.2486 33.1616 19.3902 33.4434 19.6732C33.6969 19.9562 33.8378 20.2959 33.866 20.6921V21.8808C33.866 22.2205 33.6969 22.5601 33.4152 22.8714C33.2743 23.0413 33.1334 23.1545 32.9644 23.2111C32.8235 23.2677 32.5981 23.296 32.3446 23.296H29.02V21.6544H28.9636Z" fill="#2C00FF"/>
<path d="M36.5425 21.3431C36.5425 21.3431 36.5707 21.5129 36.6834 21.5695C36.7679 21.6261 36.8524 21.6827 36.9651 21.6827H38.1766C38.4584 21.6827 38.5993 21.5695 38.5993 21.3431V20.8902C38.5993 20.6355 38.4584 20.5223 38.1485 20.5223H36.937C36.7679 20.5223 36.6552 20.5223 36.5989 20.6072C36.5425 20.6638 36.5143 20.777 36.5143 20.9468V21.3431H36.5425ZM38.5993 18.8241C38.5993 18.5694 38.4584 18.4562 38.1766 18.4562H34.9929V16.8146H38.5993C39.6417 16.8146 40.177 17.3523 40.2052 18.3429V21.7676C40.2052 22.1922 40.0643 22.5601 39.8108 22.8431C39.5572 23.1262 39.1909 23.296 38.7683 23.296H36.5989C35.5282 23.296 34.9929 22.8148 34.9929 21.8242V20.494C34.9929 19.4751 35.5282 18.9656 36.5425 18.9656H38.6556V18.7958L38.5993 18.8241Z" fill="#2C00FF"/>
<path d="M41.4731 15.8806C41.4731 15.4277 41.6422 15.0881 41.9521 14.805C42.262 14.522 42.6565 14.3805 43.1636 14.3805H44.1779V15.9655H43.5581C43.22 15.9655 43.0509 16.1353 43.0509 16.4466V16.7863H44.1779V18.4278H43.0509V23.2677H41.4731V15.8806Z" fill="#2C00FF"/>
<path d="M48.7139 18.7958C48.7139 18.7958 48.6858 18.5977 48.6012 18.5411C48.5167 18.4845 48.4322 18.4562 48.3195 18.4562H47.2207C47.2207 18.4562 46.9671 18.4845 46.8826 18.5694C46.7699 18.6543 46.7136 18.7392 46.7136 18.8807V19.5317L48.7139 18.7675V18.7958ZM46.7417 21.1167V21.2299C46.7417 21.2299 46.7699 21.4563 46.8544 21.5412C46.9108 21.6261 46.9671 21.6827 47.0517 21.6827H50.3199V23.3243H46.8544C46.5445 23.3243 46.2909 23.296 46.1219 23.2394C45.9247 23.1828 45.7556 23.0696 45.6148 22.9281C45.4457 22.7582 45.333 22.5884 45.2767 22.3903C45.2203 22.1922 45.1921 21.9375 45.1921 21.6261V18.343C45.1921 17.3524 45.7275 16.8429 46.7136 16.8429H48.8548C49.8409 16.8429 50.3481 17.3807 50.3481 18.3996V19.7015L46.7699 21.1167H46.7417Z" fill="#2C00FF"/>
<path d="M53.6725 23.296C53.4471 23.296 53.2217 23.296 53.0245 23.2394C52.8273 23.2111 52.6019 23.0978 52.4047 22.9563C52.1793 22.7582 52.0384 22.5601 51.9539 22.3054C51.8693 22.0789 51.813 21.8242 51.813 21.5129V18.4561C51.813 18.2014 51.813 17.975 51.8975 17.8052C51.9539 17.607 52.0666 17.4372 52.2356 17.2391C52.4328 17.041 52.63 16.9278 52.8273 16.8712C53.0245 16.8146 53.2499 16.7863 53.5035 16.7863H55.9265V17.1542H53.5598C53.1372 17.1542 52.7991 17.2391 52.5737 17.4089C52.3201 17.607 52.2074 17.9184 52.2074 18.3712V21.428C52.2074 21.6544 52.2356 21.8525 52.292 22.0506C52.3483 22.2488 52.461 22.4186 52.63 22.5884C52.7991 22.7299 52.9681 22.8148 53.1372 22.8431C53.3062 22.8714 53.5035 22.8997 53.7007 22.8997H55.9828V23.296H53.7007H53.6725Z" fill="#2C00FF"/>
<path d="M62.1813 19.3335H58.9975C58.6031 19.3335 58.3214 19.4467 58.096 19.7015C57.8706 19.9279 57.7579 20.2675 57.7579 20.6638V21.6261C57.7579 21.8242 57.7579 21.994 57.8142 22.1355C57.8424 22.3054 57.9551 22.4469 58.1241 22.5601C58.4059 22.7865 58.7158 22.8997 59.0539 22.8997H60.9979C61.815 22.8997 62.2094 22.4752 62.2094 21.6261V19.3335H62.1813ZM62.5757 21.5412C62.5757 21.7959 62.5757 21.994 62.5194 22.1921C62.463 22.3903 62.3503 22.5884 62.2094 22.7865C61.8713 23.1261 61.4769 23.296 60.9698 23.296H59.0821C58.6031 23.296 58.1805 23.1545 57.8706 22.8431C57.5606 22.5601 57.3916 22.1355 57.3916 21.6261V20.6355C57.3916 19.5317 57.9551 18.9373 59.0539 18.9373H62.2094V18.5127C62.2094 18.1448 62.0967 17.8335 61.8995 17.5787C61.7586 17.4089 61.6178 17.2957 61.4487 17.2391C61.2797 17.1825 61.0825 17.1542 60.8571 17.1542H57.4198V16.7863H60.688C60.9979 16.7863 61.2515 16.7863 61.5051 16.8429C61.6178 16.8712 61.7305 16.9278 61.8432 16.9844C61.9559 17.041 62.0686 17.1542 62.1531 17.2674C62.4348 17.6353 62.5757 18.0882 62.5757 18.5693V21.5129V21.5412Z" fill="#2C00FF"/>
<path d="M66.1538 17.1542C65.2804 17.1542 64.8297 17.6637 64.8578 18.626V23.296H64.4634V18.626C64.4634 17.4089 65.0269 16.7863 66.2102 16.7863H66.6328V17.1542H66.1538Z" fill="#2C00FF"/>
<path d="M72.5777 17.1542H69.563C69.3376 17.1542 69.1686 17.1542 68.9714 17.2392C68.8023 17.2958 68.6051 17.3807 68.4361 17.5788C68.267 17.7486 68.1825 17.9184 68.1261 18.0599C68.0698 18.2298 68.0416 18.4279 68.0698 18.6543V21.6261C68.0698 22.1073 68.2107 22.4469 68.4924 22.645C68.6333 22.73 68.8023 22.7866 68.9714 22.8432C69.1404 22.8998 69.3376 22.9281 69.563 22.9281H70.8872C71.3944 22.9281 71.7888 22.8149 72.0987 22.5884C72.4086 22.362 72.5777 21.9941 72.5777 21.4846V17.1825V17.1542ZM72.9721 21.4846C72.944 22.73 72.2959 23.3243 71.0281 23.296H69.6194C69.3095 23.296 69.0559 23.296 68.8305 23.2111C68.5769 23.1545 68.3515 22.9847 68.1261 22.7583C67.9571 22.5601 67.8444 22.3337 67.8162 22.1356C67.7599 21.9092 67.7317 21.6827 67.7317 21.428V18.6543C67.7317 17.409 68.3797 16.7863 69.6194 16.7863H72.6059V14.6636H73.0003V21.4846H72.9721Z" fill="#2C00FF"/>
<path d="M0.67633 16.5882C0.67633 16.5882 0.9299 16.5033 1.0426 16.475C1.26799 15.3711 2.22592 14.5503 3.40925 14.5503C4.59258 14.5503 5.55051 15.3711 5.77591 16.475C6.14217 16.5316 6.42392 16.7014 6.64931 16.8995C6.64931 16.6731 6.64931 16.475 6.64931 16.3051C6.50844 14.6353 5.12789 13.3333 3.43743 13.3333C1.74696 13.3333 0.253713 14.6919 0.169189 16.4184C0.169189 16.5599 0.169189 16.7297 0.169189 16.8995C0.310062 16.7863 0.479108 16.6731 0.67633 16.5882Z" fill="#2C00FF"/>
<path d="M5.29704 16.8146H1.43714C1.23992 16.8146 1.0427 16.8712 0.845478 16.9561C0.648257 17.041 0.507384 17.1542 0.366512 17.2674C0.112942 17.5505 0.000244141 17.975 0.000244141 18.5411V21.5978C0.000244141 22.1639 0.141116 22.5884 0.366512 22.8714C0.47921 22.9847 0.648257 23.0979 0.845478 23.1828C1.0427 23.2677 1.23992 23.3243 1.43714 23.3243H5.32522C6.3395 23.3243 6.84664 22.7582 6.84664 21.6827V18.5128C6.84664 17.4089 6.31132 16.8712 5.32522 16.8712" fill="#2C00FF"/>
</g>
<defs>
<clipPath id="clip0_1564_1690">
<rect width="73" height="40" fill="white" transform="translate(0.000244141)"/>
</clipPath>
</defs>
</svg>
