<svg xmlns="http://www.w3.org/2000/svg" width="59" height="33" fill="none" viewBox="0 0 59 33">
  <path fill="#21262E" d="M28.839 19.431c-.43.638-.976.994-1.739 1.244-1.362.446-3.42.704-4.714.05-.973-.494-1.624-1.556-1.648-2.658-.006-.245.053-.68.175-1.309.66-3.359 1.178-6.755 1.647-10.145.108-.778.153-1.559.137-2.342-.01-.526.017-.89.083-1.09.29-.882 1.057-1.197 1.921-1.331a31.033 31.033 0 0 1 5.774-.334c1.479.047 3.044.318 4.295 1.013 2.067 1.148 3.026 3.336 2.904 5.692-.102 1.976-1.085 3.516-2.598 4.724-.028.023-.036.051-.022.086.61 1.608 1.382 3.167 2.114 4.721.142.299.216.56.224.784.08 2.144-3.235 2.47-4.75 2.55-1.342.07-3-.46-3.758-1.654a.029.029 0 0 0-.023-.012.026.026 0 0 0-.022.011Zm3.838-7.189a.11.11 0 0 1 .053-.13c1.04-.555 2.168-1.503 2.63-2.601.63-1.492.37-3.64-.88-4.748-.809-.714-1.927-1.04-3.016-1.148-2.306-.23-4.434-.108-6.674.207a.108.108 0 0 0-.092.11c.032.825-.006 1.656-.115 2.493a198.728 198.728 0 0 1-1.506 9.706c-.193 1.072-.735 2.715.891 2.941.751.104 2.538-.1 3.154-.575.03-.023.037-.052.02-.086-.255-.52-.148-1.3-.077-1.856.136-1.071.293-2.156.47-3.253a.08.08 0 0 1 .027-.048.078.078 0 0 1 .051-.02l1.397-.003a.08.08 0 0 1 .076.054c.505 1.463 1.008 2.927 1.509 4.391.262.765.834 1.42 1.7 1.435.838.014 2.117-.198 3.021-.562a.076.076 0 0 0 .045-.053.074.074 0 0 0-.018-.067 2.218 2.218 0 0 1-.317-.435 18.465 18.465 0 0 1-.978-1.997 44.192 44.192 0 0 1-1.371-3.755Z"/>
  <path fill="#21262E" d="M31.372 6.466c.696 1.007.139 3.179-.757 3.948-.711.611-1.741.675-2.658.61-.038-.003-.054-.023-.049-.062l.796-5.25c.007-.047.034-.073.082-.077.893-.08 2.033.027 2.586.831ZM18.644 28.682a.047.047 0 0 0-.028.069l1.482 2.59c.025.044.012.066-.038.066h-1.265a.09.09 0 0 1-.083-.048L17.3 28.887a.097.097 0 0 0-.09-.054l-.896.001c-.036 0-.054.018-.054.055l.001 2.45c0 .046-.023.068-.068.068h-1.111c-.048 0-.072-.023-.072-.07v-6.243c0-.035.018-.053.054-.054 1.037-.008 2.067-.006 3.09.004.196.003.428.056.698.162 1.76.692 1.51 2.952-.208 3.476Zm-2.38-2.551-.007 1.596c0 .008.003.016.01.022.006.006.014.01.022.01l1.633.005c.117 0 .234-.018.343-.054a.934.934 0 0 0 .291-.155.737.737 0 0 0 .195-.235.606.606 0 0 0 .07-.277v-.212a.662.662 0 0 0-.26-.513 1.013 1.013 0 0 0-.633-.214l-1.632-.005a.032.032 0 0 0-.032.032ZM36.07 31.369a.04.04 0 0 1-.04.04H34.95a.04.04 0 0 1-.04-.04V25.19a.04.04 0 0 1 .04-.04h1.082a.04.04 0 0 1 .04.04v6.178ZM42.746 26.889l.902-.012.015.003a.038.038 0 0 1 .022.021.04.04 0 0 1 .003.016v.881a.042.042 0 0 1-.012.03.043.043 0 0 1-.03.013l-.907-.015c-.043 0-.065.02-.065.064-.009.737-.01 1.474-.004 2.21.003.468.515.431.85.388.113-.015.169.034.169.148v.737c0 .113-.056.167-.168.16-.394-.024-.85.04-1.208-.114-.694-.298-.806-.845-.806-1.596.001-1.363.002-2.727 0-4.09 0-.035.019-.053.055-.053h1.048a.06.06 0 0 1 .06.059v1.074c0 .051.025.077.076.076Z"/>
  <path fill="#21262E" d="M21.244 29.482c.022.282.123.51.305.684.676.652 1.737.423 2.126-.433a.033.033 0 0 1 .046-.015l.827.476c.007.004.013.01.015.018a.035.035 0 0 1-.002.026c-1.174 2.27-4.591 1.41-4.455-1.235.153-2.977 4.767-3.124 4.6.364a.066.066 0 0 1-.021.045.068.068 0 0 1-.047.018h-3.346c-.035 0-.051.017-.048.052Zm1.808-1.673c-.794-.378-1.461-.028-1.815.717a.03.03 0 0 0 .002.03.033.033 0 0 0 .027.015h2.3a.048.048 0 0 0 .046-.057.974.974 0 0 0-.56-.705ZM29.933 27.607c1.245-1.476 4.086-.96 4.385 1.082.474 3.239-4.085 3.856-4.838 1.145-.203-.728-.041-1.643.453-2.227Zm3.246 1.54a1.302 1.302 0 1 0-2.603.001 1.302 1.302 0 0 0 2.603 0ZM27.083 29.838l1.1-2.927a.034.034 0 0 1 .031-.023l1.167-.005c.006 0 .011.001.016.004.005.002.01.006.013.01a.034.034 0 0 1 .003.033l-1.81 4.455a.035.035 0 0 1-.031.021l-1.04.001a.034.034 0 0 1-.033-.021l-1.811-4.454a.034.034 0 0 1 .032-.047h1.165c.007 0 .013.002.02.006.005.004.01.01.012.017l1.102 2.93a.034.034 0 0 0 .032.022.034.034 0 0 0 .032-.022ZM40.74 30.444c-.733 1.708-3.909 1.39-4.015-.654-.021-.402-.022-1.354-.002-2.857 0-.032.016-.048.048-.048h1.042a.069.069 0 0 1 .065.044.073.073 0 0 1 .005.027c-.014.772-.012 1.54.004 2.306.008.315.045.54.113.676.316.632 1.416.545 1.66-.06.065-.161.098-.49.099-.988 0-.644 0-1.29-.004-1.938a.07.07 0 0 1 .02-.048.066.066 0 0 1 .047-.02h1.042c.037 0 .055.019.055.055.002.682.002 1.363 0 2.043-.003.704-.063 1.19-.18 1.462Z"/>
</svg>
