<svg xmlns="http://www.w3.org/2000/svg" width="43" height="32" viewBox="0 0 43 32" fill="none">
    <g clip-path="url(#clip0_6459_52893)">
        <path d="M27.1241 9.33334C28.4151 9.33334 29.4592 9.62168 30.1175 9.88284L29.6636 12.67L29.3617 12.5329C28.7579 12.2719 27.9607 12.0111 26.8758 12.0387C25.5581 12.0387 24.9672 12.6013 24.9535 13.1507C24.9535 13.7549 25.6683 14.1531 26.8356 14.7437C28.7584 15.6637 29.6503 16.7895 29.637 18.2588C29.6099 20.9364 27.3302 22.6667 23.8284 22.6667C22.3312 22.6528 20.8891 22.3363 20.1063 21.9797L20.5734 19.0824L21.0128 19.2886C22.0978 19.7697 22.8117 19.9752 24.1441 19.9752C25.105 19.9752 26.1352 19.5766 26.1483 18.7119C26.1483 18.1489 25.7094 17.7367 24.4182 17.105C23.155 16.4869 21.466 15.4573 21.4933 13.6034C21.5076 11.0908 23.8284 9.33334 27.1241 9.33334Z" fill="url(#paint0_linear_6459_52893)"/>
        <path d="M14.6819 22.4743H18.0193L20.1065 9.5673H16.7694L14.6819 22.4743Z" fill="url(#paint1_linear_6459_52893)"/>
        <path fill-rule="evenodd" clip-rule="evenodd" d="M38.6726 9.5673H36.0912C35.2951 9.5673 34.6903 9.80053 34.3469 10.6382L29.3897 22.4741H32.8914C32.8914 22.4741 33.468 20.8811 33.5919 20.538H37.8767C37.9726 20.9911 38.275 22.4741 38.275 22.4741H41.365L38.6726 9.5673ZM34.5531 17.9018C34.8279 17.1603 35.8855 14.2905 35.8855 14.2905C35.8799 14.3017 35.9236 14.1806 35.9885 14.0006L35.9885 14.0005L35.9886 14.0004C36.0844 13.7348 36.2264 13.3412 36.3246 13.0548L36.5578 14.167C36.5578 14.167 37.1898 17.2565 37.3271 17.9018H34.5531Z" fill="url(#paint2_linear_6459_52893)"/>
        <path d="M5.59115 9.5673H0.22168L0.166748 9.82809C1.47634 10.163 2.64765 10.6455 3.67396 11.2456L6.64854 22.4606H10.1777L15.4234 9.5673H11.8945L8.6261 18.3686L8.26895 16.5836L8.26861 16.5825L7.10169 10.6523C6.90951 9.82791 6.31895 9.59449 5.59115 9.5673Z" fill="url(#paint3_linear_6459_52893)"/>
    </g>
    <defs>
        <linearGradient id="paint0_linear_6459_52893" x1="6.81949" y1="13.9188" x2="24.5809" y2="30.1544" gradientUnits="userSpaceOnUse">
            <stop stop-color="#222357"/>
            <stop offset="1" stop-color="#254AA5"/>
        </linearGradient>
        <linearGradient id="paint1_linear_6459_52893" x1="6.81949" y1="13.9188" x2="24.5809" y2="30.1544" gradientUnits="userSpaceOnUse">
            <stop stop-color="#222357"/>
            <stop offset="1" stop-color="#254AA5"/>
        </linearGradient>
        <linearGradient id="paint2_linear_6459_52893" x1="6.81949" y1="13.9188" x2="24.5809" y2="30.1544" gradientUnits="userSpaceOnUse">
            <stop stop-color="#222357"/>
            <stop offset="1" stop-color="#254AA5"/>
        </linearGradient>
        <linearGradient id="paint3_linear_6459_52893" x1="6.81949" y1="13.9188" x2="24.5809" y2="30.1544" gradientUnits="userSpaceOnUse">
            <stop stop-color="#222357"/>
            <stop offset="1" stop-color="#254AA5"/>
        </linearGradient>
        <clipPath id="clip0_6459_52893">
            <rect width="42.6667" height="32" fill="white" transform="translate(0.166748)"/>
        </clipPath>
    </defs>
</svg>
