<svg xmlns="http://www.w3.org/2000/svg" width="59" height="32" fill="none" viewBox="0 0 59 32">
  <path fill="#163300" d="M36.843 17.94c.013-.085.045-.094.096-.025 1.036 1.384 2.505 2.25 4.249 1.979.746-.116 1.305-1.016.73-1.654-.155-.17-.386-.328-.695-.471-.8-.375-1.778-.738-2.416-1.157-1.503-.986-1.954-2.426-1.352-4.32 1.026-3.232 5.522-3.327 8.032-2.214.19.083.346.182.471.295a.218.218 0 0 1 .074.208l-.482 3.375a.052.052 0 0 1-.012.028.052.052 0 0 1-.08-.002c-.879-1.125-3.114-2.496-4.498-1.39-.582.467-.267 1.248.295 1.536 1.032.527 2.079.958 3.051 1.603 1.227.811 1.476 2.743 1.069 4.08-1.085 3.561-6.426 3.625-8.889 1.81-.117-.085-.163-.208-.14-.367.157-1.077.322-2.182.497-3.315ZM58.67 14.721v1.283l-.15.972c-.018.123-.089.184-.212.184l-8.275.001a.175.175 0 0 0-.17.136.174.174 0 0 0 .002.078c.284 1.223.626 2.19 1.922 2.51 1.506.374 2.416-.427 3.244-1.557.06-.082.135-.102.226-.06l2.636 1.22c.087.041.107.103.06.186-2.514 4.402-9.993 4.272-11.262-1.191-.953-4.11 1.126-8.494 5.649-9.024 3.14-.37 5.783 1.396 6.228 4.618.03.212.063.427.102.644Zm-8.291-.625a1.165 1.165 0 0 0-.125.476c-.002.067.031.101.098.101h4.712c.144 0 .209-.072.195-.215-.166-1.701-1.37-2.612-3.012-2.104-.827.255-1.45.835-1.868 1.742ZM25.749 16.882l2.356-7.217a.05.05 0 0 1 .047-.034l3.326.002a.05.05 0 0 1 .046.068l-4.677 12.857a.05.05 0 0 1-.047.032l-2.79.002a.05.05 0 0 1-.05-.042l-1.225-7.994a.05.05 0 0 0-.074-.036.05.05 0 0 0-.02.024L19.13 22.56a.05.05 0 0 1-.045.03l-2.833.002a.05.05 0 0 1-.05-.045L14.995 9.68a.05.05 0 0 1 .03-.05.05.05 0 0 1 .02-.005l3.406.013a.05.05 0 0 1 .05.046l.37 7.187a.05.05 0 0 0 .096.018L22.07 9.66a.05.05 0 0 1 .044-.03l2.453.003a.05.05 0 0 1 .05.043l1.035 7.198a.05.05 0 0 0 .046.042.05.05 0 0 0 .05-.034ZM36.267 9.76l-1.779 12.735a.11.11 0 0 1-.11.095l-3.399.002a.113.113 0 0 1-.084-.039.11.11 0 0 1-.025-.088l1.792-12.737a.11.11 0 0 1 .11-.095h3.386a.111.111 0 0 1 .11.127ZM5.184 11.94l1.048 1.812a.079.079 0 0 1-.008.09l-1.608 1.836a.079.079 0 0 0 .06.13l2.532-.002a.079.079 0 0 1 .073.105l-.659 1.876a.078.078 0 0 1-.075.053l-6.38.003a.08.08 0 0 1-.073-.045.079.079 0 0 1 .012-.085l3.55-4.142a.079.079 0 0 0 .009-.09L1.51 9.75a.079.079 0 0 1 .069-.118l11.953-.001a.079.079 0 0 1 .074.106L8.95 22.538a.079.079 0 0 1-.074.052l-2.514.003a.079.079 0 0 1-.074-.106l3.839-10.554a.08.08 0 0 0-.038-.098.079.079 0 0 0-.036-.008l-4.802-.005a.08.08 0 0 0-.068.04.08.08 0 0 0 0 .079Z"/>
</svg>
