<svg version="1.2" xmlns="http://www.w3.org/2000/svg" viewBox="0 0 1541 1026" width="1541" height="1026">
	<title>OnlyFans_logo (1)-svg</title>
	<style>
		.s0 { fill: #00aeef } 
		.s1 { fill: #008ccf } 
	</style>
	<g id="Layer">
		<path id="Layer" fill-rule="evenodd" class="s0" d="m513.5 1025.9c-284 0-513.5-229.3-513.5-512.9 0-283.6 229.5-512.8 513.5-512.8 283.9 0 513.4 229.2 513.4 512.8 0 283.6-229.5 512.9-513.4 512.9zm154-512.9c0-85-68.8-153.8-154-153.8-85.2 0-154.1 68.8-154.1 153.8 0 85.1 68.9 153.9 154.1 153.9 85.2 0 154-68.8 154-153.9z"/>
		<path id="Layer" class="s1" d="m1090.6 384.8c130.5 37.5 284.5 0 284.5 0-44.7 194.9-186.4 317-390.8 331.8-78.5 182.1-259.8 309.3-470.8 309.3l154-489c158.4-502.7 239.5-536.7 615.1-536.7h257.8c-43.1 189.8-191.8 334.7-449.8 384.6z"/>
	</g>
</svg>