<svg xmlns="http://www.w3.org/2000/svg" viewBox="0 0 48 48">
  <rect width="48" height="48" rx="8" fill="#06C755"/>
  <path fill="#fff" d="M40 22.4c0-7.2-7.2-13-16-13s-16 5.8-16 13c0 6.4 5.7 11.8 13.4 12.8.5.1 1.2.3 1.4.8.2.4.1.9.1 1.3l-.2 1.3c-.1.4-.3 1.5 1.3.8s8.7-5.1 11.9-8.8c2.2-2.4 3.1-4.9 3.1-8.2z"/>
  <path fill="#06C755" d="M20.5 19h-1.2c-.2 0-.3.1-.3.3v7.4c0 .2.1.3.3.3h1.2c.2 0 .3-.1.3-.3v-7.4c0-.2-.1-.3-.3-.3zM27.8 19h-1.2c-.2 0-.3.1-.3.3v4.4l-3.4-4.6c0-.1-.1-.1-.2-.1h-1.2c-.2 0-.3.1-.3.3v7.4c0 .2.1.3.3.3h1.2c.2 0 .3-.1.3-.3v-4.4l3.4 4.6c0 .1.1.1.2.1h1.2c.2 0 .3-.1.3-.3v-7.4c0-.2-.1-.3-.3-.3zM17.1 25.2h-2.6v-5.9c0-.2-.1-.3-.3-.3h-1.2c-.2 0-.3.1-.3.3v7.4c0 .2.1.3.3.3h4.1c.2 0 .3-.1.3-.3V25.5c0-.2-.1-.3-.3-.3zM35 21.2c.2 0 .3-.1.3-.3v-1.2c0-.2-.1-.3-.3-.3h-4.1c-.2 0-.3.1-.3.3v7.4c0 .2.1.3.3.3h4.1c.2 0 .3-.1.3-.3v-1.2c0-.2-.1-.3-.3-.3h-2.6v-1.3h2.6c.2 0 .3-.1.3-.3v-1.2c0-.2-.1-.3-.3-.3h-2.6v-1.3H35z"/>
</svg>
