<svg xmlns="http://www.w3.org/2000/svg" viewBox="0 0 48 48">
  <rect width="48" height="48" rx="8" fill="#FFFC00"/>
  <path fill="#fff" stroke="#000" stroke-width=".8" d="M24 10c-3.2 0-5.8.9-7.5 2.6-1.4 1.4-2.2 3.4-2.3 5.9 0 .4 0 .9.1 1.4-.4.2-.9.3-1.4.3-.4 0-.8-.1-1.1-.2-.3-.1-.5 0-.7.2-.2.2-.2.5-.1.7.5 1 1.5 1.5 2.6 1.5.1 0 .3 0 .4 0 .2.7.4 1.3.6 1.9.3.8.7 1.5 1.2 2.1-1.5.6-3 1.4-3.3 2.3-.1.3 0 .6.2.8.4.4 1.2.6 2.3.6.3 0 .7 0 1.1-.1.1.4.2.8.3 1.1.1.3.3.5.6.5h.1c.7-.1 1.4-.5 2.4-.9.7-.3 1.5-.6 2.4-.8.7-.1 1.3.2 2 .5.9.4 1.9.9 3.2.9s2.3-.5 3.2-.9c.7-.3 1.3-.6 2-.5.9.2 1.7.5 2.4.8 1 .4 1.7.8 2.4.9h.1c.3 0 .5-.2.6-.5.1-.3.2-.7.3-1.1.4.1.8.1 1.1.1 1.1 0 1.9-.2 2.3-.6.2-.2.3-.5.2-.8-.3-.9-1.8-1.7-3.3-2.3.5-.6.9-1.3 1.2-2.1.2-.6.4-1.2.6-1.9.1 0 .3 0 .4 0 1.1 0 2.1-.5 2.6-1.5.1-.2.1-.5-.1-.7-.2-.2-.4-.3-.7-.2-.3.1-.7.2-1.1.2-.5 0-1-.1-1.4-.3.1-.5.1-1 .1-1.4-.1-2.5-.9-4.5-2.3-5.9C29.8 10.9 27.2 10 24 10z"/>
</svg>
