<svg xmlns="http://www.w3.org/2000/svg" viewBox="0 0 48 48">
  <circle cx="24" cy="24" r="24" fill="#29B6F6"/>
  <path fill="#fff" d="M33.95 15l-3.746 19.126s-.161.874-1.245.874c-.576 0-.873-.274-.873-.274l-6.731-5.435-3.21-1.518L14 26.126s-.702-.262-.702-.852c0-.509.732-.759.732-.759l19.294-7.539s.961-.378 1.456-.378c.306 0 .5.1.5.35 0 .169-.113.6-.113.6z"/>
  <path fill="#B0BEC5" d="M23 30l-.851 5.662s-.355.427-.855.427c-.254 0-.478-.089-.662-.216l-3.532-2.873z"/>
  <path fill="#CFD8DC" d="M28.958 19.083L18.5 27.5l-.5 5-1.5-6.5z"/>
</svg>
