<svg xmlns="http://www.w3.org/2000/svg" viewBox="0 0 48 48">
  <circle cx="24" cy="24" r="24" fill="#7360F2"/>
  <path fill="#fff" d="M34.4 20.6c-.3-1.4-.8-2.7-1.5-3.8-.7-1.1-1.6-2-2.6-2.8-1.6-1.2-3.5-1.9-5.5-2-.4 0-.8-.1-1.2-.1h-.4c-2.3 0-4.4.6-6.3 1.8-1.1.7-2 1.5-2.8 2.5s-1.3 2.2-1.6 3.4c-.2.9-.3 1.8-.3 2.7 0 1.3.2 2.5.7 3.7.5 1.3 1.3 2.4 2.2 3.3v3.9l3.5-2.2c.8.2 1.6.4 2.4.5.5.1 1 .1 1.6.1 2.1 0 4-.5 5.7-1.6 1.1-.7 2.1-1.6 2.9-2.7.8-1.1 1.4-2.3 1.7-3.6.2-.9.3-1.8.3-2.7 0-.8-.1-1.6-.3-2.4zm-4.5 7.5c-.2.3-.5.5-.8.6-.3.1-.5.1-.8.1-.4-.1-.7-.2-1-.4l-2.2-1.3c-.1-.1-.3-.1-.4 0l-1.4 1.3c-.4.4-.9.3-1.2-.1l-2.4-3.1c-.2-.3-.2-.6.1-.9l1.1-1c.1-.1.2-.3.1-.4l-1.5-2.7c-.1-.3-.3-.5-.6-.6-.3-.1-.6-.1-.9 0-.3.1-.5.3-.7.5-.6.6-.9 1.3-.9 2.1 0 .5.1 1 .3 1.5.6 1.6 1.6 3 2.8 4.2 1.4 1.4 3 2.4 4.9 3 .5.1 1 .2 1.5.2.8 0 1.6-.4 2.1-1 .2-.2.3-.5.4-.7.1-.3.1-.6 0-.9-.1-.4-.3-.6-.5-.8z"/>
  <path fill="#fff" d="M26.5 17.9c1.4.3 2.6 1 3.5 2.1.9 1.1 1.4 2.3 1.4 3.8 0 .3-.2.5-.5.5s-.5-.2-.5-.5c0-1.2-.4-2.2-1.2-3.1-.8-.9-1.8-1.5-2.9-1.7-.3-.1-.4-.3-.4-.6.1-.3.3-.5.6-.5z"/>
  <path fill="#fff" d="M26.2 20c.8.2 1.5.6 2 1.2.5.6.8 1.4.8 2.2 0 .3-.2.5-.5.5s-.5-.2-.5-.5c0-.6-.2-1.1-.5-1.5-.4-.5-.9-.8-1.5-.9-.3-.1-.4-.3-.4-.5.1-.3.3-.5.6-.5z"/>
  <circle cx="26.5" cy="23" r=".8" fill="#fff"/>
</svg>
